<?xml version="1.0" encoding="UTF-8" standalone="no" ?>
<svg version="1.1" xmlns="http://w3.org/2000/svg" id="logo_rm" height="8em" width="11em">
<style>
			#main_m {fill:#000000;}
			#main_r {fill:#000000;}
</style>
<g id="rm2">
<path d="m 371.5175,167.41252 c 0,0 29.88912,125.23748 26.30686,199.56931 -3.62853,75.29206 -26.30686,184.14805 -26.30686,184.14805 l -30.84253,0.90713 0.90713,33.56393 190.49798,0 10.8856,-32.65679 -40.821,-1.81427 c 0,0 -14.25244,-164.66186 2.7214,-248.55451 5.06689,-25.0429 21.7712,-120.64872 73.47779,-120.64872 58.97064,0 77.10633,68.035 76.19919,124.27726 -0.90713,56.24226 -27.21399,245.8331 -27.21399,245.8331 l -30.84253,0 -9.07133,35.3782 203.19784,-0.90713 9.07133,-36.28533 -45.35666,0 c 0,0 43.5424,-193.21938 37.19246,-302.07537 C 785.17025,139.29139 757.95625,34.063937 670.87146,22.271205 583.78667,10.478473 560.20121,29.528271 438.64536,127.49866 317.0895,225.46905 423.22409,103.00606 423.22409,103.00606" id="main_m" />
<path d="m 0.5,586.50807 1.814267,-35.37819 29.935397,0 27.214002,-526.137282 -17.235536,0 0,-24.492598 128.81292,0.907133 -2.7214,24.492598 -14.51413,0 -1.81426,50.79946 c 0,0 50.44848,-77.421148 161.46971,-72.756391 107.94886,4.535666 146.04846,113.57739 146.04846,113.57739 l -85.27053,74.38492 c 0,0 -15.42126,-74.38492 -72.57066,-46.26379 -57.14939,28.12113 -93.43472,105.22745 -115.20592,200.47645 -21.7712,95.24899 -22.67833,204.82637 -22.67833,204.82637 l 29.9354,-0.7214 -1.81427,38.0996 z" id="main_r"/>
</g>
</svg>
