<?xml version="1.0"?>
<svg version="1.1" xmlns="http://www.w3.org/2000/svg" xmlns:xlink="http://www.w3.org/1999/xlink" width="220" height="180">
    <desc iVinci="yes" version="4.6" gridStep="20" showGrid="no" snapToGrid="no" codePlatform="0"/>
    <g id="Layer1" name="Layer 1" opacity="1">
        <g id="Shape1">
            <desc shapeID="1" type="0" basicInfo-basicType="0" basicInfo-roundedRectRadius="12" basicInfo-polygonSides="6" basicInfo-starPoints="5" bounding="rect(-57.3764,-71.0311,114.752,142.062)" text="" font-familyName="" font-pixelSize="20" font-bold="0" font-underline="0" font-alignment="1" strokeStyle="0" markerStart="0" markerEnd="0" shadowEnabled="0" shadowOffsetX="0" shadowOffsetY="2" shadowBlur="4" shadowOpacity="160" blurEnabled="0" blurRadius="4" transform="matrix(1,0,0,1,153.522,93.2199)" pers-center="0,0" pers-size="0,0" pers-start="0,0" pers-end="0,0" locked="0" mesh="" flag=""/>
            <path id="shapePath1" d="M103.856,59.2501 C103.856,59.2501 111.329,90.5595 110.433,109.143 C109.526,127.965 103.856,155.179 103.856,155.179 L96.1457,155.406 L96.3725,163.797 L143.997,163.797 L146.718,155.633 L136.513,155.179 C136.513,155.179 132.95,114.014 137.194,93.0408 C138.46,86.7801 142.636,62.8787 155.563,62.8787 C170.306,62.8787 174.84,79.8874 174.613,93.948 C174.386,108.009 167.809,155.406 167.809,155.406 L160.099,155.406 L157.831,164.251 L208.63,164.024 L210.898,154.953 L199.559,154.953 C199.559,154.953 210.445,106.648 208.857,79.4338 C207.27,52.2198 200.466,25.913 178.695,22.9648 C156.924,20.0166 151.027,24.7791 120.638,49.2717 C90.2494,73.7643 116.783,43.1485 116.783,43.1485 " style="stroke:none;fill-rule:evenodd;fill:#008264;fill-opacity:1;"/>
        </g>
        <g id="Shape2">
            <desc shapeID="2" type="0" basicInfo-basicType="0" basicInfo-roundedRectRadius="12" basicInfo-polygonSides="6" basicInfo-starPoints="5" bounding="rect(-57.3762,-73.4778,114.752,146.956)" text="" font-familyName="" font-pixelSize="20" font-bold="0" font-underline="0" font-alignment="1" strokeStyle="0" markerStart="0" markerEnd="0" shadowEnabled="0" shadowOffsetX="0" shadowOffsetY="2" shadowBlur="4" shadowOpacity="160" blurEnabled="0" blurRadius="4" transform="matrix(1,0,0,1,68.4782,90.9998)" pers-center="0,0" pers-size="0,0" pers-start="0,0" pers-end="0,0" locked="0" mesh="" flag=""/>
            <path id="shapePath2" d="M11.102,164.024 L11.5556,155.179 L19.0394,155.179 L25.8429,23.6452 L21.534,23.6452 L21.534,17.522 L53.7373,17.7488 L53.0569,23.8719 L49.4284,23.8719 L48.9748,36.5718 C48.9748,36.5718 61.5869,17.2165 89.3422,18.3827 C116.329,19.5166 125.854,46.777 125.854,46.777 L104.537,65.3733 C104.537,65.3733 100.681,46.777 86.3941,53.8073 C72.1067,60.8376 63.0354,80.1142 57.5926,103.926 C52.1498,127.739 51.923,155.133 51.923,155.133 L59.4068,154.953 L58.9533,164.478 L11.102,164.024 Z" style="stroke:none;fill-rule:evenodd;fill:#003428;fill-opacity:1;"/>
        </g>
        <g id="Shape3">
            <desc shapeID="3" type="0" basicInfo-basicType="0" basicInfo-roundedRectRadius="12" basicInfo-polygonSides="6" basicInfo-starPoints="5" bounding="rect(-57.3764,-71.0311,114.752,142.062)" text="" font-familyName="" font-pixelSize="20" font-bold="0" font-underline="0" font-alignment="1" strokeStyle="0" markerStart="0" markerEnd="0" shadowEnabled="0" shadowOffsetX="0" shadowOffsetY="2" shadowBlur="4" shadowOpacity="160" blurEnabled="0" blurRadius="4" transform="matrix(1,0,0,1,151.522,91.2199)" pers-center="0,0" pers-size="0,0" pers-start="0,0" pers-end="0,0" locked="0" mesh="" flag=""/>
            <path id="shapePath3" d="M101.856,57.2501 C101.856,57.2501 109.329,88.5595 108.433,107.143 C107.526,125.965 101.856,153.179 101.856,153.179 L94.1457,153.406 L94.3725,161.797 L141.997,161.797 L144.718,153.633 L134.513,153.179 C134.513,153.179 130.95,112.014 135.194,91.0408 C136.46,84.7801 140.636,60.8787 153.563,60.8787 C168.306,60.8787 172.84,77.8874 172.613,91.948 C172.386,106.009 165.809,153.406 165.809,153.406 L158.099,153.406 L155.831,162.251 L206.63,162.024 L208.898,152.953 L197.559,152.953 C197.559,152.953 208.445,104.648 206.857,77.4338 C205.27,50.2198 198.466,23.913 176.695,20.9648 C154.924,18.0166 149.027,22.7791 118.638,47.2717 C88.2494,71.7643 114.783,41.1485 114.783,41.1485 " style="stroke:none;fill-rule:evenodd;fill:#94e1d3;fill-opacity:1;"/>
        </g>
        <g id="Shape4">
            <desc shapeID="4" type="0" basicInfo-basicType="0" basicInfo-roundedRectRadius="12" basicInfo-polygonSides="6" basicInfo-starPoints="5" bounding="rect(-57.3762,-73.4778,114.752,146.956)" text="" font-familyName="" font-pixelSize="20" font-bold="0" font-underline="0" font-alignment="1" strokeStyle="0" markerStart="0" markerEnd="0" shadowEnabled="0" shadowOffsetX="0" shadowOffsetY="2" shadowBlur="4" shadowOpacity="160" blurEnabled="0" blurRadius="4" transform="matrix(1,0,0,1,66.4782,88.9998)" pers-center="0,0" pers-size="0,0" pers-start="0,0" pers-end="0,0" locked="0" mesh="" flag=""/>
            <path id="shapePath4" d="M9.10199,162.024 L9.55556,153.179 L17.0394,153.179 L23.8429,21.6452 L19.534,21.6452 L19.534,15.522 L51.7373,15.7488 L51.0569,21.8719 L47.4284,21.8719 L46.9748,34.5718 C46.9748,34.5718 59.5869,15.2165 87.3422,16.3827 C114.329,17.5166 123.854,44.777 123.854,44.777 L102.537,63.3733 C102.537,63.3733 98.6814,44.777 84.3941,51.8073 C70.1067,58.8376 61.0354,78.1142 55.5926,101.926 C50.1498,125.739 49.923,153.133 49.923,153.133 L57.4068,152.953 L56.9533,162.478 L9.10199,162.024 Z" style="stroke:none;fill-rule:evenodd;fill:#ffffff;fill-opacity:1;"/>
        </g>
    </g>
</svg>
